<svg xmlns="http://www.w3.org/2000/svg" version="1.1" xmlns:xlink="http://www.w3.org/1999/xlink" xmlns:svgjs="http://svgjs.dev/svgjs" width="2000" height="1639" viewBox="0 0 2000 1639"><g transform="matrix(1,0,0,1,0.8167210729064891,-2.3190106382975273)"><svg viewBox="0 0 172 141" data-background-color="#ffffff" preserveAspectRatio="xMidYMid meet" height="1639" width="2000" xmlns="http://www.w3.org/2000/svg" xmlns:xlink="http://www.w3.org/1999/xlink"><g id="tight-bounds" transform="matrix(1,0,0,1,-0.07023801226995374,0.19949999999997203)"><svg viewBox="0 0 172.1404760245399 140.60052000000002" height="140.60052000000002" width="172.1404760245399"><g><svg viewBox="0 0 172.1404760245399 140.60052000000002" height="140.60052000000002" width="172.1404760245399"><g><svg viewBox="0 0 172.1404760245399 140.60052000000002" height="140.60052000000002" width="172.1404760245399"><g><path d="M0 140.601v-140.601h172.14v140.601z" fill="#5e1914" stroke="transparent" stroke-width="0" rx="0%" data-fill-palette-color="tertiary"></path><path d="M3.283 137.317v-134.034h165.574v134.034z" fill="#ffffff" stroke="transparent" stroke-width="0" rx="0%" data-fill-palette-color="quaternary"></path><path d="M9.85 130.751v-120.901h152.441v120.901z" fill="#5e1914" stroke="transparent" stroke-width="0" data-fill-palette-color="tertiary"></path></g><g transform="matrix(1,0,0,1,19.699740000000013,19.69974)" id="textblocktransform"><svg viewBox="0 0 132.7409960245399 101.20104000000002" height="101.20104000000002" width="132.7409960245399" id="textblock"><g><svg viewBox="0 0 132.7409960245399 101.20104000000002" height="101.20104000000002" width="132.7409960245399"><g transform="matrix(1,0,0,1,0,0)"><svg width="132.7409960245399" viewBox="0.56 -34.03 52.199999999999996 39.79" height="101.20104000000002" data-palette-color="#ffffff"><path d="M20.92-14.48L20.92-14.48 20.92-14.62Q20.92-16.92 16.99-26.1L16.99-26.1Q16.31-27.69 16.28-27.69L16.28-27.69 15.58-26.05Q11.52-16.6 11.52-14.58L11.52-14.58Q11.52-14.23 11.95-14.21 12.38-14.18 12.6-14.18L12.6-14.18 14.5-14.14 16.24-14.14 16.41-14.16Q20.92-14.16 20.92-14.48ZM0.56-1.46L0.56-1.46Q0.56-2.08 1.95-2.88 3.34-3.69 4-4.93 4.66-6.18 5.86-9.44 7.06-12.7 9.12-17.65 11.18-22.61 12.39-26.55 13.6-30.49 14.04-31.54L14.04-31.54Q15.04-33.94 16.87-33.94L16.87-33.94 17.55-33.94Q18.02-33.94 18.7-33.42L18.7-33.42Q20.09-32.37 21.61-28.93L21.61-28.93Q22.12-27.76 23.14-24.91 24.17-22.07 27.25-13.79 30.32-5.52 30.69-4.79L30.69-4.79Q31.3-3.52 32.76-2.75 34.23-1.98 34.23-1.51L34.23-1.51Q34.23-0.49 33.01-0.24L33.01-0.24Q32.18-0.07 28.81-0.07L28.81-0.07 27.39-0.05Q22.88-0.05 22.88-1.27L22.88-1.27Q22.88-1.49 23.45-2.32 24.02-3.15 24.02-4.42 24.02-5.69 23.11-8.06 22.19-10.42 21.57-10.99 20.95-11.55 16.26-11.55 11.57-11.55 10.79-11.04 10.01-10.52 9.11-8.28 8.2-6.03 8.2-4.63 8.2-3.22 9.07-2.15 9.94-1.07 9.94-1.03L9.94-1.03Q9.94-0.15 6.95-0.15 3.96-0.15 2.26-0.38 0.56-0.61 0.56-1.46ZM44.36-24.1L44.36-24.1Q44.36-27.83 43.65-29.54L43.65-29.54Q43.26-30.47 41.9-31.41 40.55-32.35 40.55-32.98L40.55-32.98Q40.55-33.74 44.6-33.74L44.6-33.74Q44.99-33.74 45.98-33.8 46.97-33.86 47.53-33.89L47.53-33.89 48.73-33.96Q49.92-34.03 50.53-34.03L50.53-34.03 51.14-34.03Q52.76-34.03 52.76-33.03L52.76-33.03Q52.76-32.71 51.85-31.85 50.95-30.98 50.6-30.02 50.24-29.05 50.24-25.22L50.24-25.22 50.19-23.97 50.17-22.12 50.17-20.21Q50.12-18.95 50.12-18.16L50.12-18.16 50.12-16.43 50.1-15.16 50.1-11.11Q50.1-7.69 49.68-4.79L49.68-4.79Q48.73 1.83 43.58 4.59L43.58 4.59Q41.4 5.76 39.26 5.76L39.26 5.76Q35.32 5.76 35.32 3.81L35.32 3.81Q35.32 2.66 36.13 1.9 36.94 1.15 38.64 1.15L38.64 1.15 40.09 1.25Q41.09 1.25 41.87 0.5 42.65-0.24 43.48-2.75 44.31-5.25 44.31-11.18L44.31-11.18 44.41-14.84 44.41-22.27 44.38-22.88Q44.36-23.49 44.36-24.1Z" opacity="1" transform="matrix(1,0,0,1,0,0)" fill="#ffffff" class="wordmark-text-0" data-fill-palette-color="quaternary" id="text-0"></path></svg></g></svg></g></svg></g></svg></g><g></g></svg></g><defs></defs></svg><rect width="172.1404760245399" height="140.60052000000002" fill="none" stroke="none" visibility="hidden"></rect></g></svg></g></svg>