<svg version="1.1" id="Layer_1" xmlns="http://www.w3.org/2000/svg" xmlns:xlink="http://www.w3.org/1999/xlink" x="0px" y="0px"
	 width="100%" viewBox="0 0 976 976" enable-background="new 0 0 976 976" xml:space="preserve">
<path fill="#000000" opacity="1.000000" stroke="none" 
	d="
M591.310486,404.717651 
	C560.307251,384.862152 526.976257,371.597046 491.084015,365.662933 
	C442.161530,357.574554 394.027985,361.275604 347.618347,379.519775 
	C273.740173,408.562134 221.418015,460.013763 190.852264,533.197693 
	C177.630997,564.853516 171.308136,598.119080 171.214890,632.519226 
	C171.162994,651.666382 160.280258,665.325012 142.985031,668.442932 
	C122.516869,672.132751 103.222992,656.992493 102.929787,636.150452 
	C102.429657,600.598816 107.885956,565.848816 118.531082,531.905396 
	C127.100929,504.579315 138.878159,478.737244 154.065308,454.466736 
	C175.670273,419.939941 202.613464,390.204681 234.670624,365.097198 
	C266.757111,339.966736 302.299805,321.345703 341.141113,309.112030 
	C383.741638,295.694397 427.366241,291.105316 471.876007,294.611603 
	C525.462708,298.832947 575.419312,314.567291 621.225952,342.669250 
	C690.484802,385.158875 738.960876,444.797333 766.571411,521.260193 
	C770.979736,533.468445 774.545593,545.961121 777.345764,558.655273 
	C777.694214,560.234802 777.784668,561.991394 779.605469,563.162354 
	C782.400940,561.507080 783.684937,558.530334 785.353882,555.977722 
	C795.838989,539.940918 806.085205,523.746643 816.677124,507.781372 
	C825.317688,494.757202 840.895142,489.623199 855.822327,494.421906 
	C869.978455,498.972809 879.680115,512.608826 879.177063,527.554504 
	C878.955017,534.150513 877.102234,540.314453 873.459412,545.927917 
	C845.978638,588.274292 818.596680,630.684937 791.046082,672.985718 
	C780.253601,689.556274 759.491638,693.477661 742.229675,682.328125 
	C710.739502,661.988403 679.332031,641.520508 647.892517,621.102295 
	C636.993896,614.024231 625.955750,607.148682 615.246277,599.794861 
	C602.739014,591.206543 597.664612,575.472168 602.333435,561.348450 
	C609.561951,539.480957 634.072266,530.984985 654.060303,543.622986 
	C670.534424,554.039185 686.821899,564.750427 703.190857,575.332825 
	C703.750610,575.694702 704.263306,576.146423 704.856567,576.436035 
	C706.424316,577.201050 707.876770,579.247986 709.750061,577.948975 
	C711.751709,576.561035 710.775757,574.285461 710.315735,572.405396 
	C695.035645,509.948975 662.088013,458.848206 611.530884,419.149475 
	C605.119568,414.115204 598.260132,409.651672 591.310486,404.717651 
z"/>
</svg>